<mxfile host="app.diagrams.net" agent="Mozilla/5.0 (Windows NT 10.0; Win64; x64; rv:128.0) Gecko/20100101 Firefox/128.0" version="24.7.6">
  <diagram id="R2lEEEUBdFMjLlhIrx00" name="Page-1">
    <mxGraphModel dx="484" dy="807" grid="1" gridSize="10" guides="1" tooltips="1" connect="1" arrows="1" fold="1" page="1" pageScale="1" pageWidth="850" pageHeight="1100" math="0" shadow="0" extFonts="Permanent Marker^https://fonts.googleapis.com/css?family=Permanent+Marker">
      <root>
        <mxCell id="0" />
        <mxCell id="1" parent="0" />
        <mxCell id="0pXe_J8288s-POQmPDbU-6" style="edgeStyle=orthogonalEdgeStyle;rounded=0;orthogonalLoop=1;jettySize=auto;html=1;exitX=0.5;exitY=1;exitDx=0;exitDy=0;" edge="1" parent="1" source="0pXe_J8288s-POQmPDbU-1">
          <mxGeometry relative="1" as="geometry">
            <mxPoint x="320" y="1122" as="targetPoint" />
          </mxGeometry>
        </mxCell>
        <mxCell id="0pXe_J8288s-POQmPDbU-1" value="Empréstimos" style="whiteSpace=wrap;html=1;align=center;" vertex="1" parent="1">
          <mxGeometry x="270" y="700" width="100" height="40" as="geometry" />
        </mxCell>
        <mxCell id="0pXe_J8288s-POQmPDbU-7" style="edgeStyle=orthogonalEdgeStyle;rounded=0;orthogonalLoop=1;jettySize=auto;html=1;exitX=0.5;exitY=1;exitDx=0;exitDy=0;" edge="1" parent="1" source="0pXe_J8288s-POQmPDbU-2">
          <mxGeometry relative="1" as="geometry">
            <mxPoint x="319.47058823529414" y="570" as="targetPoint" />
          </mxGeometry>
        </mxCell>
        <mxCell id="0pXe_J8288s-POQmPDbU-2" value="Relatório" style="whiteSpace=wrap;html=1;align=center;" vertex="1" parent="1">
          <mxGeometry x="270" y="160" width="100" height="40" as="geometry" />
        </mxCell>
        <mxCell id="0pXe_J8288s-POQmPDbU-8" style="edgeStyle=orthogonalEdgeStyle;rounded=0;orthogonalLoop=1;jettySize=auto;html=1;exitX=0.5;exitY=1;exitDx=0;exitDy=0;" edge="1" parent="1" source="0pXe_J8288s-POQmPDbU-3">
          <mxGeometry relative="1" as="geometry">
            <mxPoint x="320.3529411764707" y="1540" as="targetPoint" />
          </mxGeometry>
        </mxCell>
        <mxCell id="0pXe_J8288s-POQmPDbU-3" value="Departamentos" style="whiteSpace=wrap;html=1;align=center;" vertex="1" parent="1">
          <mxGeometry x="270" y="1140" width="100" height="40" as="geometry" />
        </mxCell>
        <mxCell id="0pXe_J8288s-POQmPDbU-9" style="edgeStyle=orthogonalEdgeStyle;rounded=0;orthogonalLoop=1;jettySize=auto;html=1;exitX=0.5;exitY=1;exitDx=0;exitDy=0;" edge="1" parent="1" source="0pXe_J8288s-POQmPDbU-4">
          <mxGeometry relative="1" as="geometry">
            <mxPoint x="320.0588235294117" y="1990" as="targetPoint" />
          </mxGeometry>
        </mxCell>
        <mxCell id="0pXe_J8288s-POQmPDbU-4" value="&lt;div&gt;Contas&lt;/div&gt;" style="whiteSpace=wrap;html=1;align=center;" vertex="1" parent="1">
          <mxGeometry x="270" y="1580" width="100" height="40" as="geometry" />
        </mxCell>
        <mxCell id="0pXe_J8288s-POQmPDbU-18" style="edgeStyle=orthogonalEdgeStyle;rounded=0;orthogonalLoop=1;jettySize=auto;html=1;exitX=0;exitY=0.5;exitDx=0;exitDy=0;endArrow=none;endFill=0;" edge="1" parent="1" source="0pXe_J8288s-POQmPDbU-10">
          <mxGeometry relative="1" as="geometry">
            <mxPoint x="320" y="260" as="targetPoint" />
          </mxGeometry>
        </mxCell>
        <mxCell id="0pXe_J8288s-POQmPDbU-10" value="Tipo" style="ellipse;whiteSpace=wrap;html=1;align=center;" vertex="1" parent="1">
          <mxGeometry x="355" y="240" width="70" height="30" as="geometry" />
        </mxCell>
        <mxCell id="0pXe_J8288s-POQmPDbU-19" style="edgeStyle=orthogonalEdgeStyle;rounded=0;orthogonalLoop=1;jettySize=auto;html=1;exitX=0;exitY=0.5;exitDx=0;exitDy=0;" edge="1" parent="1" source="0pXe_J8288s-POQmPDbU-12">
          <mxGeometry relative="1" as="geometry">
            <mxPoint x="320" y="295.0175438596491" as="targetPoint" />
          </mxGeometry>
        </mxCell>
        <mxCell id="0pXe_J8288s-POQmPDbU-12" value="Data " style="ellipse;whiteSpace=wrap;html=1;align=center;" vertex="1" parent="1">
          <mxGeometry x="355" y="280" width="70" height="30" as="geometry" />
        </mxCell>
        <mxCell id="0pXe_J8288s-POQmPDbU-21" style="edgeStyle=orthogonalEdgeStyle;rounded=0;orthogonalLoop=1;jettySize=auto;html=1;exitX=0;exitY=0.5;exitDx=0;exitDy=0;" edge="1" parent="1" source="0pXe_J8288s-POQmPDbU-20">
          <mxGeometry relative="1" as="geometry">
            <mxPoint x="320" y="335.0175438596491" as="targetPoint" />
          </mxGeometry>
        </mxCell>
        <mxCell id="0pXe_J8288s-POQmPDbU-20" value="Periodo" style="ellipse;whiteSpace=wrap;html=1;align=center;" vertex="1" parent="1">
          <mxGeometry x="365" y="330" width="70" height="30" as="geometry" />
        </mxCell>
        <mxCell id="0pXe_J8288s-POQmPDbU-22" value="Data_inicial" style="ellipse;whiteSpace=wrap;html=1;align=center;" vertex="1" parent="1">
          <mxGeometry x="470" y="310" width="70" height="30" as="geometry" />
        </mxCell>
        <mxCell id="0pXe_J8288s-POQmPDbU-23" value="Data_Final" style="ellipse;whiteSpace=wrap;html=1;align=center;" vertex="1" parent="1">
          <mxGeometry x="470" y="360" width="70" height="30" as="geometry" />
        </mxCell>
        <mxCell id="0pXe_J8288s-POQmPDbU-24" style="edgeStyle=orthogonalEdgeStyle;rounded=0;orthogonalLoop=1;jettySize=auto;html=1;exitX=0;exitY=0.5;exitDx=0;exitDy=0;entryX=1.024;entryY=0.577;entryDx=0;entryDy=0;entryPerimeter=0;" edge="1" parent="1" source="0pXe_J8288s-POQmPDbU-23" target="0pXe_J8288s-POQmPDbU-20">
          <mxGeometry relative="1" as="geometry" />
        </mxCell>
        <mxCell id="0pXe_J8288s-POQmPDbU-25" style="edgeStyle=orthogonalEdgeStyle;rounded=0;orthogonalLoop=1;jettySize=auto;html=1;exitX=0;exitY=0.5;exitDx=0;exitDy=0;entryX=0.983;entryY=0.717;entryDx=0;entryDy=0;entryPerimeter=0;" edge="1" parent="1" source="0pXe_J8288s-POQmPDbU-22" target="0pXe_J8288s-POQmPDbU-20">
          <mxGeometry relative="1" as="geometry" />
        </mxCell>
        <mxCell id="0pXe_J8288s-POQmPDbU-27" style="edgeStyle=orthogonalEdgeStyle;rounded=0;orthogonalLoop=1;jettySize=auto;html=1;exitX=0;exitY=0.5;exitDx=0;exitDy=0;" edge="1" parent="1" source="0pXe_J8288s-POQmPDbU-26">
          <mxGeometry relative="1" as="geometry">
            <mxPoint x="320" y="394.7948717948718" as="targetPoint" />
          </mxGeometry>
        </mxCell>
        <mxCell id="0pXe_J8288s-POQmPDbU-26" value="Descrição" style="ellipse;whiteSpace=wrap;html=1;align=center;" vertex="1" parent="1">
          <mxGeometry x="355" y="380" width="70" height="30" as="geometry" />
        </mxCell>
        <mxCell id="0pXe_J8288s-POQmPDbU-29" style="edgeStyle=orthogonalEdgeStyle;rounded=0;orthogonalLoop=1;jettySize=auto;html=1;exitX=0;exitY=0.5;exitDx=0;exitDy=0;" edge="1" parent="1" source="0pXe_J8288s-POQmPDbU-28">
          <mxGeometry relative="1" as="geometry">
            <mxPoint x="320" y="434.7948717948718" as="targetPoint" />
          </mxGeometry>
        </mxCell>
        <mxCell id="0pXe_J8288s-POQmPDbU-28" value="Status" style="ellipse;whiteSpace=wrap;html=1;align=center;" vertex="1" parent="1">
          <mxGeometry x="365" y="430" width="70" height="30" as="geometry" />
        </mxCell>
        <mxCell id="0pXe_J8288s-POQmPDbU-31" style="edgeStyle=orthogonalEdgeStyle;rounded=0;orthogonalLoop=1;jettySize=auto;html=1;exitX=0;exitY=0.5;exitDx=0;exitDy=0;" edge="1" parent="1" source="0pXe_J8288s-POQmPDbU-30">
          <mxGeometry relative="1" as="geometry">
            <mxPoint x="320" y="494.7948717948718" as="targetPoint" />
          </mxGeometry>
        </mxCell>
        <mxCell id="0pXe_J8288s-POQmPDbU-30" value="Comentários" style="ellipse;whiteSpace=wrap;html=1;align=center;" vertex="1" parent="1">
          <mxGeometry x="365" y="470" width="85" height="40" as="geometry" />
        </mxCell>
        <mxCell id="0pXe_J8288s-POQmPDbU-32" value="a geração do relatório é uma relação" style="text;strokeColor=none;align=center;fillColor=none;html=1;verticalAlign=middle;whiteSpace=wrap;rounded=0;" vertex="1" parent="1">
          <mxGeometry x="530" y="200" width="60" height="30" as="geometry" />
        </mxCell>
        <mxCell id="0pXe_J8288s-POQmPDbU-33" value="&lt;div&gt;O código de relatório&lt;/div&gt;&lt;div&gt;pode ser&lt;/div&gt;&lt;div&gt;Omitido&lt;br&gt;&lt;/div&gt;" style="text;html=1;align=center;verticalAlign=middle;resizable=0;points=[];autosize=1;strokeColor=none;fillColor=none;" vertex="1" parent="1">
          <mxGeometry x="390" y="163" width="140" height="60" as="geometry" />
        </mxCell>
        <mxCell id="0pXe_J8288s-POQmPDbU-35" style="edgeStyle=orthogonalEdgeStyle;rounded=0;orthogonalLoop=1;jettySize=auto;html=1;exitX=0;exitY=0.5;exitDx=0;exitDy=0;" edge="1" parent="1" source="0pXe_J8288s-POQmPDbU-34">
          <mxGeometry relative="1" as="geometry">
            <mxPoint x="320" y="540" as="targetPoint" />
          </mxGeometry>
        </mxCell>
        <mxCell id="0pXe_J8288s-POQmPDbU-34" value="Documento/path" style="ellipse;whiteSpace=wrap;html=1;align=center;" vertex="1" parent="1">
          <mxGeometry x="357.5" y="520" width="85" height="40" as="geometry" />
        </mxCell>
        <mxCell id="0pXe_J8288s-POQmPDbU-36" value="(Pendente,Finalizado)" style="text;html=1;align=center;verticalAlign=middle;resizable=0;points=[];autosize=1;strokeColor=none;fillColor=none;" vertex="1" parent="1">
          <mxGeometry x="435" y="430" width="140" height="30" as="geometry" />
        </mxCell>
        <mxCell id="0pXe_J8288s-POQmPDbU-39" style="edgeStyle=orthogonalEdgeStyle;rounded=0;orthogonalLoop=1;jettySize=auto;html=1;exitX=0;exitY=0.5;exitDx=0;exitDy=0;" edge="1" parent="1" source="0pXe_J8288s-POQmPDbU-38">
          <mxGeometry relative="1" as="geometry">
            <mxPoint x="320" y="789.7878787878788" as="targetPoint" />
          </mxGeometry>
        </mxCell>
        <mxCell id="0pXe_J8288s-POQmPDbU-38" value="Valor" style="ellipse;whiteSpace=wrap;html=1;align=center;" vertex="1" parent="1">
          <mxGeometry x="370" y="820" width="85" height="40" as="geometry" />
        </mxCell>
        <mxCell id="0pXe_J8288s-POQmPDbU-42" style="edgeStyle=orthogonalEdgeStyle;rounded=0;orthogonalLoop=1;jettySize=auto;html=1;exitX=0;exitY=0.5;exitDx=0;exitDy=0;" edge="1" parent="1" source="0pXe_J8288s-POQmPDbU-40">
          <mxGeometry relative="1" as="geometry">
            <mxPoint x="320" y="860.0909090909092" as="targetPoint" />
          </mxGeometry>
        </mxCell>
        <mxCell id="0pXe_J8288s-POQmPDbU-40" value="&lt;div&gt;juros&lt;/div&gt;" style="ellipse;whiteSpace=wrap;html=1;align=center;" vertex="1" parent="1">
          <mxGeometry x="365" y="860" width="85" height="40" as="geometry" />
        </mxCell>
        <mxCell id="0pXe_J8288s-POQmPDbU-44" style="edgeStyle=orthogonalEdgeStyle;rounded=0;orthogonalLoop=1;jettySize=auto;html=1;exitX=0;exitY=0.5;exitDx=0;exitDy=0;" edge="1" parent="1">
          <mxGeometry relative="1" as="geometry">
            <mxPoint x="320" y="920.0909090909092" as="targetPoint" />
            <mxPoint x="370.00000000000205" y="920" as="sourcePoint" />
          </mxGeometry>
        </mxCell>
        <mxCell id="0pXe_J8288s-POQmPDbU-45" value="Data_inicio" style="ellipse;whiteSpace=wrap;html=1;align=center;" vertex="1" parent="1">
          <mxGeometry x="370" y="900" width="85" height="40" as="geometry" />
        </mxCell>
        <mxCell id="0pXe_J8288s-POQmPDbU-47" style="edgeStyle=orthogonalEdgeStyle;rounded=0;orthogonalLoop=1;jettySize=auto;html=1;exitX=0;exitY=0.5;exitDx=0;exitDy=0;" edge="1" parent="1" source="0pXe_J8288s-POQmPDbU-46">
          <mxGeometry relative="1" as="geometry">
            <mxPoint x="320" y="960.0909090909092" as="targetPoint" />
          </mxGeometry>
        </mxCell>
        <mxCell id="0pXe_J8288s-POQmPDbU-46" value="Data_Terrmino" style="ellipse;whiteSpace=wrap;html=1;align=center;" vertex="1" parent="1">
          <mxGeometry x="365" y="940" width="85" height="40" as="geometry" />
        </mxCell>
        <mxCell id="0pXe_J8288s-POQmPDbU-49" style="edgeStyle=orthogonalEdgeStyle;rounded=0;orthogonalLoop=1;jettySize=auto;html=1;exitX=0;exitY=0.5;exitDx=0;exitDy=0;" edge="1" parent="1" source="0pXe_J8288s-POQmPDbU-48">
          <mxGeometry relative="1" as="geometry">
            <mxPoint x="320" y="1000.0909090909092" as="targetPoint" />
          </mxGeometry>
        </mxCell>
        <mxCell id="0pXe_J8288s-POQmPDbU-48" value="Status" style="ellipse;whiteSpace=wrap;html=1;align=center;" vertex="1" parent="1">
          <mxGeometry x="365" y="980" width="85" height="40" as="geometry" />
        </mxCell>
        <mxCell id="0pXe_J8288s-POQmPDbU-51" style="edgeStyle=orthogonalEdgeStyle;rounded=0;orthogonalLoop=1;jettySize=auto;html=1;exitX=0;exitY=0.5;exitDx=0;exitDy=0;" edge="1" parent="1" source="0pXe_J8288s-POQmPDbU-50">
          <mxGeometry relative="1" as="geometry">
            <mxPoint x="320" y="1049.787878787879" as="targetPoint" />
          </mxGeometry>
        </mxCell>
        <mxCell id="0pXe_J8288s-POQmPDbU-50" value="Parcelas" style="ellipse;whiteSpace=wrap;html=1;align=center;" vertex="1" parent="1">
          <mxGeometry x="357.5" y="1030" width="85" height="40" as="geometry" />
        </mxCell>
        <mxCell id="0pXe_J8288s-POQmPDbU-54" style="edgeStyle=orthogonalEdgeStyle;rounded=0;orthogonalLoop=1;jettySize=auto;html=1;exitX=0;exitY=0.5;exitDx=0;exitDy=0;entryX=1;entryY=0.5;entryDx=0;entryDy=0;" edge="1" parent="1" source="0pXe_J8288s-POQmPDbU-52" target="0pXe_J8288s-POQmPDbU-50">
          <mxGeometry relative="1" as="geometry" />
        </mxCell>
        <mxCell id="0pXe_J8288s-POQmPDbU-52" value="Quantidade" style="ellipse;whiteSpace=wrap;html=1;align=center;" vertex="1" parent="1">
          <mxGeometry x="462.5" y="1020" width="85" height="40" as="geometry" />
        </mxCell>
        <mxCell id="0pXe_J8288s-POQmPDbU-53" value="Valor" style="ellipse;whiteSpace=wrap;html=1;align=center;" vertex="1" parent="1">
          <mxGeometry x="462.5" y="1070" width="85" height="40" as="geometry" />
        </mxCell>
        <mxCell id="0pXe_J8288s-POQmPDbU-55" style="edgeStyle=orthogonalEdgeStyle;rounded=0;orthogonalLoop=1;jettySize=auto;html=1;exitX=0;exitY=0.5;exitDx=0;exitDy=0;entryX=0.735;entryY=1;entryDx=0;entryDy=0;entryPerimeter=0;" edge="1" parent="1" source="0pXe_J8288s-POQmPDbU-53" target="0pXe_J8288s-POQmPDbU-50">
          <mxGeometry relative="1" as="geometry" />
        </mxCell>
        <mxCell id="0pXe_J8288s-POQmPDbU-56" value="(Ativo,Quitado,inadiplente)" style="text;html=1;align=center;verticalAlign=middle;resizable=0;points=[];autosize=1;strokeColor=none;fillColor=none;" vertex="1" parent="1">
          <mxGeometry x="442.5" y="980" width="170" height="30" as="geometry" />
        </mxCell>
        <mxCell id="0pXe_J8288s-POQmPDbU-75" style="edgeStyle=orthogonalEdgeStyle;rounded=0;orthogonalLoop=1;jettySize=auto;html=1;exitX=0;exitY=0.5;exitDx=0;exitDy=0;" edge="1" parent="1" source="0pXe_J8288s-POQmPDbU-57">
          <mxGeometry relative="1" as="geometry">
            <mxPoint x="320" y="1220.2941176470588" as="targetPoint" />
          </mxGeometry>
        </mxCell>
        <mxCell id="0pXe_J8288s-POQmPDbU-57" value="Nome" style="ellipse;whiteSpace=wrap;html=1;align=center;" vertex="1" parent="1">
          <mxGeometry x="350" y="1200" width="85" height="40" as="geometry" />
        </mxCell>
        <mxCell id="0pXe_J8288s-POQmPDbU-62" style="edgeStyle=orthogonalEdgeStyle;rounded=0;orthogonalLoop=1;jettySize=auto;html=1;exitX=1;exitY=0.5;exitDx=0;exitDy=0;" edge="1" parent="1" source="0pXe_J8288s-POQmPDbU-58">
          <mxGeometry relative="1" as="geometry">
            <mxPoint x="520" y="1260" as="targetPoint" />
          </mxGeometry>
        </mxCell>
        <mxCell id="0pXe_J8288s-POQmPDbU-76" style="edgeStyle=orthogonalEdgeStyle;rounded=0;orthogonalLoop=1;jettySize=auto;html=1;exitX=0;exitY=0.5;exitDx=0;exitDy=0;" edge="1" parent="1" source="0pXe_J8288s-POQmPDbU-58">
          <mxGeometry relative="1" as="geometry">
            <mxPoint x="320" y="1270.2941176470588" as="targetPoint" />
          </mxGeometry>
        </mxCell>
        <mxCell id="0pXe_J8288s-POQmPDbU-58" value="Gerente/Diretor" style="ellipse;whiteSpace=wrap;html=1;align=center;" vertex="1" parent="1">
          <mxGeometry x="347.5" y="1250" width="102.5" height="40" as="geometry" />
        </mxCell>
        <mxCell id="0pXe_J8288s-POQmPDbU-78" style="edgeStyle=orthogonalEdgeStyle;rounded=0;orthogonalLoop=1;jettySize=auto;html=1;exitX=0;exitY=0.5;exitDx=0;exitDy=0;" edge="1" parent="1" source="0pXe_J8288s-POQmPDbU-59">
          <mxGeometry relative="1" as="geometry">
            <mxPoint x="320" y="1380.2941176470588" as="targetPoint" />
          </mxGeometry>
        </mxCell>
        <mxCell id="0pXe_J8288s-POQmPDbU-59" value="Orçamento" style="ellipse;whiteSpace=wrap;html=1;align=center;" vertex="1" parent="1">
          <mxGeometry x="357.5" y="1360" width="85" height="40" as="geometry" />
        </mxCell>
        <mxCell id="0pXe_J8288s-POQmPDbU-77" style="edgeStyle=orthogonalEdgeStyle;rounded=0;orthogonalLoop=1;jettySize=auto;html=1;exitX=0;exitY=0.5;exitDx=0;exitDy=0;" edge="1" parent="1" source="0pXe_J8288s-POQmPDbU-60">
          <mxGeometry relative="1" as="geometry">
            <mxPoint x="320" y="1330.2941176470588" as="targetPoint" />
          </mxGeometry>
        </mxCell>
        <mxCell id="0pXe_J8288s-POQmPDbU-60" value="&lt;div&gt;Número de&lt;/div&gt;&lt;div&gt;Funcionarios&lt;br&gt;&lt;/div&gt;" style="ellipse;whiteSpace=wrap;html=1;align=center;" vertex="1" parent="1">
          <mxGeometry x="357.5" y="1310" width="85" height="40" as="geometry" />
        </mxCell>
        <mxCell id="0pXe_J8288s-POQmPDbU-79" style="edgeStyle=orthogonalEdgeStyle;rounded=0;orthogonalLoop=1;jettySize=auto;html=1;exitX=0;exitY=0.5;exitDx=0;exitDy=0;" edge="1" parent="1" source="0pXe_J8288s-POQmPDbU-61">
          <mxGeometry relative="1" as="geometry">
            <mxPoint x="320" y="1440.2941176470588" as="targetPoint" />
          </mxGeometry>
        </mxCell>
        <mxCell id="0pXe_J8288s-POQmPDbU-61" value="Contato" style="ellipse;whiteSpace=wrap;html=1;align=center;" vertex="1" parent="1">
          <mxGeometry x="357.5" y="1420" width="85" height="40" as="geometry" />
        </mxCell>
        <mxCell id="0pXe_J8288s-POQmPDbU-63" value="&lt;div&gt;Talvez seja&lt;/div&gt;&lt;div&gt;Uma relação&lt;br&gt;&lt;/div&gt;" style="text;html=1;align=center;verticalAlign=middle;resizable=0;points=[];autosize=1;strokeColor=none;fillColor=none;" vertex="1" parent="1">
          <mxGeometry x="515" y="1240" width="90" height="40" as="geometry" />
        </mxCell>
        <mxCell id="0pXe_J8288s-POQmPDbU-66" value="" style="ellipse;whiteSpace=wrap;html=1;align=center;" vertex="1" parent="1">
          <mxGeometry x="490" y="1390" width="30" height="30" as="geometry" />
        </mxCell>
        <mxCell id="0pXe_J8288s-POQmPDbU-64" value="" style="ellipse;whiteSpace=wrap;html=1;align=center;gradientColor=none;fillColor=none;" vertex="1" parent="1">
          <mxGeometry x="495" y="1395" width="20" height="20" as="geometry" />
        </mxCell>
        <mxCell id="0pXe_J8288s-POQmPDbU-72" style="edgeStyle=orthogonalEdgeStyle;rounded=0;orthogonalLoop=1;jettySize=auto;html=1;exitX=0;exitY=0.5;exitDx=0;exitDy=0;" edge="1" parent="1" source="0pXe_J8288s-POQmPDbU-69" target="0pXe_J8288s-POQmPDbU-61">
          <mxGeometry relative="1" as="geometry" />
        </mxCell>
        <mxCell id="0pXe_J8288s-POQmPDbU-69" value="" style="ellipse;whiteSpace=wrap;html=1;align=center;" vertex="1" parent="1">
          <mxGeometry x="490" y="1460" width="30" height="30" as="geometry" />
        </mxCell>
        <mxCell id="0pXe_J8288s-POQmPDbU-70" value="" style="ellipse;whiteSpace=wrap;html=1;align=center;gradientColor=none;fillColor=none;" vertex="1" parent="1">
          <mxGeometry x="495" y="1465" width="20" height="20" as="geometry" />
        </mxCell>
        <mxCell id="0pXe_J8288s-POQmPDbU-71" style="edgeStyle=orthogonalEdgeStyle;rounded=0;orthogonalLoop=1;jettySize=auto;html=1;exitX=0;exitY=0.5;exitDx=0;exitDy=0;entryX=0.969;entryY=0.479;entryDx=0;entryDy=0;entryPerimeter=0;" edge="1" parent="1" source="0pXe_J8288s-POQmPDbU-66" target="0pXe_J8288s-POQmPDbU-61">
          <mxGeometry relative="1" as="geometry" />
        </mxCell>
        <mxCell id="0pXe_J8288s-POQmPDbU-73" value="Telefone" style="text;html=1;align=center;verticalAlign=middle;resizable=0;points=[];autosize=1;strokeColor=none;fillColor=none;" vertex="1" parent="1">
          <mxGeometry x="515" y="1385" width="70" height="30" as="geometry" />
        </mxCell>
        <mxCell id="0pXe_J8288s-POQmPDbU-74" value="Email" style="text;html=1;align=center;verticalAlign=middle;resizable=0;points=[];autosize=1;strokeColor=none;fillColor=none;" vertex="1" parent="1">
          <mxGeometry x="520" y="1458" width="60" height="30" as="geometry" />
        </mxCell>
        <mxCell id="0pXe_J8288s-POQmPDbU-80" value="&lt;div&gt;Está atlerado &lt;br&gt;&lt;/div&gt;&lt;div&gt;a um cliente e uma conta&lt;br&gt;&lt;br&gt;por relacionamento&lt;br&gt;&lt;/div&gt;" style="text;html=1;align=center;verticalAlign=middle;resizable=0;points=[];autosize=1;strokeColor=none;fillColor=none;" vertex="1" parent="1">
          <mxGeometry x="380" y="718" width="160" height="70" as="geometry" />
        </mxCell>
        <mxCell id="0pXe_J8288s-POQmPDbU-81" value="Está atlelado a funcionario" style="text;html=1;align=center;verticalAlign=middle;resizable=0;points=[];autosize=1;strokeColor=none;fillColor=none;" vertex="1" parent="1">
          <mxGeometry x="395" y="1160" width="170" height="30" as="geometry" />
        </mxCell>
        <mxCell id="0pXe_J8288s-POQmPDbU-83" style="edgeStyle=orthogonalEdgeStyle;rounded=0;orthogonalLoop=1;jettySize=auto;html=1;exitX=0;exitY=0.5;exitDx=0;exitDy=0;" edge="1" parent="1" source="0pXe_J8288s-POQmPDbU-82">
          <mxGeometry relative="1" as="geometry">
            <mxPoint x="320" y="1500" as="targetPoint" />
          </mxGeometry>
        </mxCell>
        <mxCell id="0pXe_J8288s-POQmPDbU-82" value="Codigo" style="ellipse;whiteSpace=wrap;html=1;align=center;" vertex="1" parent="1">
          <mxGeometry x="365" y="1480" width="100" height="40" as="geometry" />
        </mxCell>
        <mxCell id="0pXe_J8288s-POQmPDbU-98" style="edgeStyle=orthogonalEdgeStyle;rounded=0;orthogonalLoop=1;jettySize=auto;html=1;exitX=0;exitY=0.5;exitDx=0;exitDy=0;" edge="1" parent="1" source="0pXe_J8288s-POQmPDbU-86">
          <mxGeometry relative="1" as="geometry">
            <mxPoint x="320" y="1660.2093023255816" as="targetPoint" />
          </mxGeometry>
        </mxCell>
        <mxCell id="0pXe_J8288s-POQmPDbU-86" value="Numero_da_conta" style="ellipse;whiteSpace=wrap;html=1;align=center;" vertex="1" parent="1">
          <mxGeometry x="367.5" y="1640" width="100" height="40" as="geometry" />
        </mxCell>
        <mxCell id="0pXe_J8288s-POQmPDbU-96" style="edgeStyle=orthogonalEdgeStyle;rounded=0;orthogonalLoop=1;jettySize=auto;html=1;exitX=0;exitY=0.5;exitDx=0;exitDy=0;" edge="1" parent="1" source="0pXe_J8288s-POQmPDbU-87">
          <mxGeometry relative="1" as="geometry">
            <mxPoint x="320" y="1769.9767441860467" as="targetPoint" />
          </mxGeometry>
        </mxCell>
        <mxCell id="0pXe_J8288s-POQmPDbU-87" value="&lt;div&gt;Saldo&lt;/div&gt;" style="ellipse;whiteSpace=wrap;html=1;align=center;" vertex="1" parent="1">
          <mxGeometry x="367.5" y="1750" width="100" height="40" as="geometry" />
        </mxCell>
        <mxCell id="0pXe_J8288s-POQmPDbU-97" style="edgeStyle=orthogonalEdgeStyle;rounded=0;orthogonalLoop=1;jettySize=auto;html=1;exitX=0;exitY=0.5;exitDx=0;exitDy=0;" edge="1" parent="1" source="0pXe_J8288s-POQmPDbU-88">
          <mxGeometry relative="1" as="geometry">
            <mxPoint x="320" y="1720.2093023255816" as="targetPoint" />
          </mxGeometry>
        </mxCell>
        <mxCell id="0pXe_J8288s-POQmPDbU-88" value="Tipo" style="ellipse;whiteSpace=wrap;html=1;align=center;" vertex="1" parent="1">
          <mxGeometry x="367.5" y="1700" width="100" height="40" as="geometry" />
        </mxCell>
        <mxCell id="0pXe_J8288s-POQmPDbU-95" style="edgeStyle=orthogonalEdgeStyle;rounded=0;orthogonalLoop=1;jettySize=auto;html=1;exitX=0;exitY=0.5;exitDx=0;exitDy=0;" edge="1" parent="1" source="0pXe_J8288s-POQmPDbU-90">
          <mxGeometry relative="1" as="geometry">
            <mxPoint x="320" y="1820.2093023255816" as="targetPoint" />
          </mxGeometry>
        </mxCell>
        <mxCell id="0pXe_J8288s-POQmPDbU-90" value="status" style="ellipse;whiteSpace=wrap;html=1;align=center;" vertex="1" parent="1">
          <mxGeometry x="365" y="1800" width="100" height="40" as="geometry" />
        </mxCell>
        <mxCell id="0pXe_J8288s-POQmPDbU-94" style="edgeStyle=orthogonalEdgeStyle;rounded=0;orthogonalLoop=1;jettySize=auto;html=1;exitX=0;exitY=0.5;exitDx=0;exitDy=0;" edge="1" parent="1" source="0pXe_J8288s-POQmPDbU-91">
          <mxGeometry relative="1" as="geometry">
            <mxPoint x="320" y="1880.2093023255816" as="targetPoint" />
          </mxGeometry>
        </mxCell>
        <mxCell id="0pXe_J8288s-POQmPDbU-91" value="Data_abertura" style="ellipse;whiteSpace=wrap;html=1;align=center;" vertex="1" parent="1">
          <mxGeometry x="365" y="1860" width="100" height="40" as="geometry" />
        </mxCell>
        <mxCell id="0pXe_J8288s-POQmPDbU-93" style="edgeStyle=orthogonalEdgeStyle;rounded=0;orthogonalLoop=1;jettySize=auto;html=1;exitX=0;exitY=0.5;exitDx=0;exitDy=0;" edge="1" parent="1" source="0pXe_J8288s-POQmPDbU-92">
          <mxGeometry relative="1" as="geometry">
            <mxPoint x="320" y="1929.9767441860467" as="targetPoint" />
          </mxGeometry>
        </mxCell>
        <mxCell id="0pXe_J8288s-POQmPDbU-92" value="Taxas e Tarifas" style="ellipse;whiteSpace=wrap;html=1;align=center;" vertex="1" parent="1">
          <mxGeometry x="362.5" y="1910" width="100" height="40" as="geometry" />
        </mxCell>
        <mxCell id="0pXe_J8288s-POQmPDbU-99" value="(aberta,Fechada,inativa)" style="text;html=1;align=center;verticalAlign=middle;resizable=0;points=[];autosize=1;strokeColor=none;fillColor=none;" vertex="1" parent="1">
          <mxGeometry x="462.5" y="1805" width="160" height="30" as="geometry" />
        </mxCell>
        <mxCell id="0pXe_J8288s-POQmPDbU-100" value="&lt;div&gt;Possu relacionamento com &lt;br&gt;&lt;/div&gt;&lt;div&gt;transação,Cliente e agência&lt;br&gt;&lt;/div&gt;" style="text;html=1;align=center;verticalAlign=middle;resizable=0;points=[];autosize=1;strokeColor=none;fillColor=none;" vertex="1" parent="1">
          <mxGeometry x="467.5" y="1680" width="180" height="40" as="geometry" />
        </mxCell>
        <mxCell id="0pXe_J8288s-POQmPDbU-101" value="&lt;div&gt;O código/id do emprestimo&lt;br&gt;&lt;/div&gt;&lt;div&gt;pode ser&lt;/div&gt;&lt;div&gt;Omitido&lt;br&gt;&lt;/div&gt;" style="text;html=1;align=center;verticalAlign=middle;resizable=0;points=[];autosize=1;strokeColor=none;fillColor=none;" vertex="1" parent="1">
          <mxGeometry x="465" y="820" width="170" height="60" as="geometry" />
        </mxCell>
      </root>
    </mxGraphModel>
  </diagram>
</mxfile>
